PathFileType	4	(X/Y/Z)	D:\TRACE\v60_Jaco2_6-2-23\JustBodyDRS_Motion2_4-platform.trc
DataRate	CameraRate	NumFrames	NumMarkers	Units	OrigDataRate	OrigDataStartFrame	OrigNumFrames
100.00	100.00	      42	5	mm	100.00	1731	      6921
Frame#	Time	Left_Front			Right_Front			Left_Aft			Right_Aft			Post			
		X1	Y1	Z1	X2	Y2	Z2	X3	Y3	Z3	X4	Y4	Z4	X5	Y5	Z5	

1731	17.300	-805.16034	39.88208	-630.70068	765.01123	40.76965	-635.73859	-712.81171	-14.02568	503.25894	728.91791	-15.94947	512.21558	-18.70670	1352.35901	-893.01019	
1732	17.310	-806.30981	38.47512	-631.08728	763.86090	39.42898	-636.12579	-714.13324	-12.89082	502.95309	727.82489	-14.91874	512.04602	-19.49374	1350.32959	-894.98865	
1733	17.320	-807.30127	37.07067	-631.52856	762.63336	38.03983	-636.68811	-715.29565	-12.12685	502.70944	726.81512	-13.96225	511.82285	-20.60874	1348.46643	-896.98413	
1734	17.330	-808.65283	35.99276	-631.73126	761.59290	36.81787	-636.94739	-716.46082	-11.20893	502.38361	725.48627	-13.03982	511.47845	-21.97738	1346.53125	-899.55762	
1735	17.340	-809.59973	34.70807	-632.21619	760.44922	35.51503	-637.15265	-717.71967	-10.19559	502.10867	724.82458	-11.78632	511.21936	-23.62658	1344.83435	-902.95770	
1736	17.350	-810.69727	33.34053	-632.60291	759.37231	34.22842	-637.70105	-718.66266	-9.14069	501.88519	723.05231	-11.04993	510.86258	-24.13494	1342.85046	-906.50262	
1737	17.360	-811.92896	31.67668	-632.70618	758.36932	32.88732	-637.83783	-719.76044	-8.38123	501.61887	722.33405	-9.83654	510.60419	-25.97540	1341.17529	-910.45331	
1738	17.370	-812.95856	30.65846	-632.97797	757.17731	31.52489	-638.19904	-721.22955	-7.19704	501.29102	720.64996	-9.09007	510.40506	-26.40937	1339.40430	-914.18579	
1739	17.380	-814.26019	29.42508	-633.74017	755.95056	30.22609	-638.83167	-722.05499	-6.56417	501.04141	720.00000	-7.89821	510.20361	-27.68408	1337.30151	-918.06726	
1740	17.390	-815.29694	27.79404	-633.94318	754.89215	28.84894	-638.98114	-723.54962	-5.21000	500.77545	718.50629	-7.09934	509.97833	-28.61022	1335.73633	-921.73499	
1741	17.400	-816.26379	26.37411	-634.27057	753.76831	27.55143	-639.14246	-724.42834	-4.57923	500.57767	717.66455	-5.99797	509.59973	-29.23472	1333.66003	-924.97174	
1742	17.410	-817.63904	25.39551	-634.60370	752.57300	26.19370	-639.85004	-725.74084	-3.32909	500.13776	717.01587	-4.73895	510.07684	-30.76950	1331.71545	-927.95410	
1743	17.420	-818.74365	23.67777	-634.90540	751.51581	24.80005	-640.21124	-726.83514	-2.41595	500.07565	715.31915	-3.94258	509.75052	-32.13699	1329.65710	-930.79858	
1744	17.430	-819.80554	22.41706	-635.32684	750.36182	23.32261	-640.45117	-727.88794	-1.43914	499.69598	714.57239	-2.84715	509.05698	-33.26238	1327.82861	-933.45734	
1745	17.440	-820.74750	21.03370	-635.97418	749.15942	21.93948	-640.87360	-729.24298	-0.30062	499.37723	713.08820	-1.90527	508.81470	-34.09348	1325.31750	-935.71344	
1746	17.450	-822.01080	19.48427	-635.97797	748.13708	20.51906	-641.27893	-730.52026	0.99072	499.24680	712.34515	-0.91880	508.47015	-35.66191	1323.47473	-937.92657	
1747	17.460	-823.19147	18.09246	-636.27875	747.12427	19.29063	-641.45929	-731.81836	2.17515	498.70010	711.07111	0.23797	508.20163	-36.98605	1321.43518	-940.36536	
1748	17.470	-823.76550	15.85778	-636.79047	746.01392	17.88398	-641.88892	-732.17084	2.44610	498.17822	710.04028	1.19006	507.50009	-38.15837	1319.46582	-943.07648	
1749	17.480	-824.84900	14.75101	-637.20807	745.11047	16.23760	-642.07422	-732.48853	2.62846	497.87057	708.69196	2.33078	507.17676	-39.20566	1317.31836	-946.13367	
1750	17.490	-825.93030	13.39785	-637.57458	743.84363	15.03823	-642.54315	-734.29529	4.34498	497.43515	707.19983	2.86482	507.18481	-39.89556	1315.43457	-949.37323	
1751	17.500	-827.34576	12.35712	-637.79303	742.84729	13.72179	-642.94263	-734.65656	4.45603	498.09485	706.54547	3.84775	506.54413	-40.68834	1313.20361	-953.16071	
1752	17.510	-828.37372	10.89196	-637.99976	741.94373	11.85967	-643.21252	-735.72211	5.58709	497.67047	704.93878	4.50429	505.98428	-42.09554	1311.28857	-957.05109	
1753	17.520	-829.19324	10.08658	-638.60950	740.81067	10.76203	-643.51807	-737.06134	6.84049	497.10773	703.30566	4.80677	505.21155	-43.00001	1308.99023	-960.77582	
1754	17.530	-830.37238	8.86651	-639.07886	739.57568	9.75947	-644.05737	-738.13513	8.08533	496.61972	704.57013	7.94669	506.65857	-43.54376	1306.75171	-963.98535	
1755	17.540	-831.34241	6.47429	-639.30835	738.85187	7.32738	-644.19421	-739.48889	9.29436	495.95453	703.06354	8.59836	505.87714	-45.52288	1304.82751	-967.37891	
1756	17.550	-832.58044	5.01166	-639.58527	737.63983	5.82435	-644.74164	-740.61572	10.37794	495.56168	702.23651	9.45617	505.50107	-46.36930	1302.69690	-970.39636	
1757	17.560	-833.48474	3.46691	-639.96448	736.89923	4.79975	-645.03680	-741.41187	11.42004	495.13336	700.47900	10.18126	504.67627	-47.26661	1300.15442	-973.57452	
1758	17.570	-834.31097	2.58717	-640.34698	735.82397	3.40933	-645.43353	-742.45612	12.34936	494.92944	699.07025	10.71857	503.98428	-48.09352	1298.23804	-976.66858	
1759	17.580	-835.23688	1.14299	-640.58502	734.75818	2.04898	-645.64948	-743.41937	13.25761	494.52255	698.95593	12.37034	503.69318	-48.73034	1296.22937	-979.74054	
1760	17.590	-836.01166	-0.17563	-640.92078	733.90430	0.35795	-645.81500	-744.11884	14.44424	494.37091	697.58704	13.37855	503.35522	-49.94217	1294.26257	-982.72913	
1761	17.600	-837.05341	-1.76726	-641.25281	733.22229	-0.58965	-646.16669	-745.09369	15.24627	494.05139	698.49817	15.38375	504.80368	-50.53430	1292.11096	-985.31696	
1762	17.610	-838.17627	-3.18945	-641.57727	732.19592	-2.09107	-646.63843	-746.20892	16.22627	493.71887	697.00317	15.96278	503.96417	-51.52885	1290.15869	-988.03186	
1763	17.620	-839.01123	-4.43389	-641.76202	731.29736	-3.37665	-646.85089	-746.93799	16.86846	493.30353	695.55219	16.55228	503.23895	-52.86861	1288.10364	-990.97809	
1764	17.630	-839.52454	-5.30089	-641.86023	730.46368	-4.83601	-647.07904	-747.92914	18.01174	493.02972	694.71057	17.36574	502.75955	-53.60966	1286.03931	-993.52966	
1765	17.640	-840.54138	-6.81091	-642.29370	729.86481	-5.86813	-647.07373	-748.68750	18.82535	492.79495	693.76495	18.24176	502.26239	-54.54196	1284.04053	-996.17487	
1766	17.650	-841.23181	-8.48564	-642.51581	728.96478	-7.23874	-647.49518	-749.49469	20.02271	492.31143	693.07660	19.33537	501.93323	-55.41180	1282.21790	-998.65948	
1767	17.660	-842.13605	-10.09031	-642.94659	727.94800	-8.83096	-648.00592	-750.33038	20.82491	491.95447	692.35266	20.25291	501.64844	-56.02825	1279.93250	-1001.60040	
1768	17.670	-843.01025	-10.96384	-643.27203	727.32605	-9.97651	-648.29175	-751.38550	21.94493	491.55951	691.46344	21.05723	501.25879	-56.93452	1278.12708	-1004.41846	
1769	17.680	-843.68262	-12.39231	-643.45691	726.72614	-11.46985	-648.34186	-751.79065	22.35244	491.28668	690.62860	22.13154	500.94473	-57.51043	1275.78772	-1007.23450	
1770	17.690	-844.39777	-13.77107	-643.60120	725.72198	-12.90140	-648.90363	-752.91522	23.79398	491.09198	689.97864	23.15911	500.54797	-58.20238	1273.81580	-1010.04340	
1771	17.700	-844.98297	-14.95956	-644.04254	725.14191	-13.83605	-648.98303	-753.13104	24.32098	490.71133	689.59644	24.08962	500.16623	-58.72606	1271.53052	-1013.33966	
1772	17.710	-845.70337	-16.58917	-644.22638	724.35156	-15.48673	-649.43427	-753.84900	25.29316	490.25464	688.83087	24.94446	499.94754	-59.71909	1269.74353	-1016.20905	
